<svg width="25" height="24" viewBox="0 0 25 24" fill="none" xmlns="http://www.w3.org/2000/svg">
<path d="M5.48903 7.18907C5.48903 5.97402 6.47349 4.98953 7.68851 4.98856H8.68952C9.27028 4.98856 9.82672 4.75801 10.2392 4.34942L10.9386 3.649C11.7957 2.78708 13.1887 2.78319 14.0506 3.64024L14.0516 3.64121L14.0603 3.649L14.7607 4.34942C15.1732 4.75898 15.7296 4.98856 16.3104 4.98856H17.3104C18.5254 4.98856 19.5109 5.97305 19.5109 7.18907V8.18815C19.5109 8.76892 19.7405 9.32634 20.15 9.73881L20.8504 10.4392C21.7123 11.2963 21.7172 12.6894 20.8601 13.5513L20.8592 13.5522L20.8504 13.561L20.15 14.2614C19.7405 14.6729 19.5109 15.2294 19.5109 15.8101V16.8112C19.5109 18.0262 18.5264 19.0107 17.3114 19.0107H17.3104H16.3084C15.7277 19.0107 15.1703 19.2413 14.7588 19.6508L14.0584 20.3503C13.2023 21.2122 11.8102 21.217 10.9483 20.3619C10.9474 20.361 10.9464 20.36 10.9454 20.359L10.9367 20.3503L10.2372 19.6508C9.82574 19.2413 9.26833 19.0117 8.68757 19.0107H7.68851C6.47349 19.0107 5.48903 18.0262 5.48903 16.8112V15.8082C5.48903 15.2274 5.25847 14.671 4.84893 14.2595L4.14949 13.5591C3.28759 12.703 3.28273 11.3109 4.13879 10.449C4.13879 10.448 4.13976 10.447 4.14073 10.446L4.14949 10.4373L4.84893 9.73687C5.25847 9.32439 5.48903 8.76794 5.48903 8.1862V7.18907" stroke="#555555" stroke-width="1.5" stroke-linecap="round" stroke-linejoin="round"/>
<path fill-rule="evenodd" clip-rule="evenodd" d="M12.8713 9.06303L13.4873 10.31C13.5473 10.432 13.6633 10.517 13.7983 10.537L15.1753 10.738C15.5163 10.788 15.6513 11.206 15.4053 11.445L14.4093 12.415C14.3113 12.51 14.2673 12.647 14.2893 12.782L14.5243 14.152C14.5823 14.491 14.2273 14.749 13.9233 14.589L12.6923 13.942C12.5713 13.878 12.4273 13.878 12.3063 13.942L11.0763 14.589C10.7713 14.749 10.4163 14.491 10.4743 14.152L10.7093 12.782C10.7323 12.647 10.6873 12.51 10.5893 12.415L9.59434 11.445C9.34834 11.206 9.48334 10.788 9.82334 10.738L11.2003 10.537C11.3353 10.517 11.4523 10.432 11.5123 10.31L12.1273 9.06303C12.2793 8.75503 12.7193 8.75503 12.8713 9.06303Z" stroke="#555555" stroke-width="1.5" stroke-linecap="round" stroke-linejoin="round"/>
</svg>
