<svg width="24" height="24" viewBox="0 0 24 24" fill="none" xmlns="http://www.w3.org/2000/svg">
<rect x="3" y="3" width="18" height="18" rx="2" stroke="#181818" stroke-width="2"/>
<circle cx="8" cy="8" r="1" fill="#181818"/>
<circle cx="8" cy="12" r="1" fill="#181818"/>
<path d="M9 16C9 16.5523 8.55228 17 8 17C7.44772 17 7 16.5523 7 16C7 15.4477 7.44772 15 8 15C8.55228 15 9 15.4477 9 16Z" fill="#181818"/>
<circle cx="12" cy="8" r="1" fill="#181818"/>
<circle cx="12" cy="12" r="1" fill="#181818"/>
<circle cx="12" cy="16" r="1" fill="#181818"/>
<circle cx="16" cy="8" r="1" fill="#181818"/>
<circle cx="16" cy="12" r="1" fill="#181818"/>
<path d="M17 3V1" stroke="#181818" stroke-width="2" stroke-linecap="round"/>
<path d="M7 3V1" stroke="#181818" stroke-width="2" stroke-linecap="round"/>
</svg>
