<svg width="22" height="18" viewBox="0 0 22 18" fill="none" xmlns="http://www.w3.org/2000/svg">
<path d="M16.8877 7.89673C18.2827 7.70073 19.3567 6.50473 19.3597 5.05573C19.3597 3.62773 18.3187 2.44373 16.9537 2.21973" stroke="#181818" stroke-width="1.5" stroke-linecap="round" stroke-linejoin="round"/>
<path d="M18.7285 11.2502C20.0795 11.4522 21.0225 11.9252 21.0225 12.9002C21.0225 13.5712 20.5785 14.0072 19.8605 14.2812" stroke="#181818" stroke-width="1.5" stroke-linecap="round" stroke-linejoin="round"/>
<path fill-rule="evenodd" clip-rule="evenodd" d="M10.8867 11.6638C7.67267 11.6638 4.92767 12.1508 4.92767 14.0958C4.92767 16.0398 7.65567 16.5408 10.8867 16.5408C14.1007 16.5408 16.8447 16.0588 16.8447 14.1128C16.8447 12.1668 14.1177 11.6638 10.8867 11.6638Z" stroke="#181818" stroke-width="1.5" stroke-linecap="round" stroke-linejoin="round"/>
<path fill-rule="evenodd" clip-rule="evenodd" d="M10.8867 8.88788C12.9957 8.88788 14.7057 7.17888 14.7057 5.06888C14.7057 2.95988 12.9957 1.24988 10.8867 1.24988C8.77766 1.24988 7.06766 2.95988 7.06766 5.06888C7.05966 7.17088 8.75666 8.88088 10.8587 8.88788H10.8867Z" stroke="#181818" stroke-width="1.5" stroke-linecap="round" stroke-linejoin="round"/>
<path d="M4.88478 7.89673C3.48878 7.70073 2.41578 6.50473 2.41278 5.05573C2.41278 3.62773 3.45378 2.44373 4.81878 2.21973" stroke="#181818" stroke-width="1.5" stroke-linecap="round" stroke-linejoin="round"/>
<path d="M3.04388 11.2502C1.69288 11.4522 0.749878 11.9252 0.749878 12.9002C0.749878 13.5712 1.19388 14.0072 1.91188 14.2812" stroke="#181818" stroke-width="1.5" stroke-linecap="round" stroke-linejoin="round"/>
</svg>
