<svg width="24" height="24" viewBox="0 0 24 24" fill="none" xmlns="http://www.w3.org/2000/svg">
<g id="Image">
<g id="Image_2">
<path id="Stroke 1" fill-rule="evenodd" clip-rule="evenodd" d="M21.21 7.8992V16.0502C21.21 19.0702 19.32 21.2002 16.3 21.2002H7.65C4.63 21.2002 2.75 19.0702 2.75 16.0502V7.8992C2.75 4.8792 4.64 2.7502 7.65 2.7502H16.3C19.32 2.7502 21.21 4.8792 21.21 7.8992Z" stroke="#181818" stroke-width="1.5" stroke-linecap="round" stroke-linejoin="round"/>
<path id="Stroke 3" d="M5.28125 16.4309L6.80925 14.8179C7.34025 14.2549 8.22525 14.2279 8.78925 14.7579C8.80625 14.7749 9.72625 15.7099 9.72625 15.7099C10.2813 16.2749 11.1883 16.2839 11.7533 15.7299C11.7903 15.6939 14.0872 12.9079 14.0872 12.9079C14.6792 12.1889 15.7422 12.0859 16.4622 12.6789C16.5102 12.7189 18.6803 14.9459 18.6803 14.9459" stroke="#181818" stroke-width="1.5" stroke-linecap="round" stroke-linejoin="round"/>
<path id="Stroke 5" fill-rule="evenodd" clip-rule="evenodd" d="M10.3126 9.1331C10.3126 10.1021 9.52757 10.8871 8.55857 10.8871C7.58957 10.8871 6.80457 10.1021 6.80457 9.1331C6.80457 8.1641 7.58957 7.3791 8.55857 7.3791C9.52757 7.3801 10.3126 8.1641 10.3126 9.1331Z" stroke="#181818" stroke-width="1.5" stroke-linecap="round" stroke-linejoin="round"/>
</g>
</g>
</svg>
