<svg width="251" height="41" viewBox="0 0 251 41" fill="none" xmlns="http://www.w3.org/2000/svg">
<path d="M4 0H74L70 41H0L4 0Z" fill="url(#paint0_linear_2268_4492)"/>
<path d="M15.92 32H21.52V24.064H30.48V32H36.08V9.24799H30.48V18.944H21.52V9.24799H15.92V32Z" fill="white"/>
<path d="M59.92 32L54.736 24.928C57.488 23.648 59.024 21.248 59.024 17.632C59.024 12.224 55.632 9.24799 49.328 9.24799H39.92V32H45.52V26.016H48.848H49.008L53.104 32H59.92ZM45.52 14.112H48.944C51.952 14.112 53.136 15.424 53.136 17.952C53.136 19.808 51.888 21.344 48.784 21.344H45.52V14.112Z" fill="white"/>
<path d="M91.637 30.276C96.858 30.276 100.216 26.757 100.216 21.904C100.216 16.706 96.513 13.509 91.637 13.509C86.416 13.509 83.081 17.028 83.081 21.904C83.081 27.102 86.761 30.276 91.637 30.276ZM91.637 28.482C87.681 28.482 85.082 25.699 85.082 21.904C85.082 17.833 87.934 15.303 91.637 15.303C95.616 15.303 98.215 18.086 98.215 21.904C98.215 25.975 95.34 28.482 91.637 28.482Z" fill="black"/>
<path d="M116.014 13.785V26.251L105.066 13.578H104.077V30H106.009V17.534L116.957 30.184H117.946V13.785H116.014Z" fill="black"/>
<path d="M132.152 21.513C133.67 21.053 134.567 19.834 134.567 17.925C134.567 15.303 132.796 13.785 129.346 13.785H122.584V30H130.128C134.084 30 135.786 28.39 135.786 25.354C135.786 23.307 134.475 21.996 132.152 21.513ZM124.516 15.579H129.369C131.324 15.579 132.566 16.361 132.566 18.017C132.566 19.926 131.508 20.823 129.047 20.823H124.516V15.579ZM130.128 28.206H124.516V22.617H129.53C132.543 22.617 133.785 23.652 133.785 25.354C133.785 27.217 132.773 28.206 130.128 28.206Z" fill="black"/>
<path d="M147.135 30.276C152.356 30.276 155.714 26.757 155.714 21.904C155.714 16.706 152.011 13.509 147.135 13.509C141.914 13.509 138.579 17.028 138.579 21.904C138.579 27.102 142.259 30.276 147.135 30.276ZM147.135 28.482C143.179 28.482 140.58 25.699 140.58 21.904C140.58 17.833 143.432 15.303 147.135 15.303C151.114 15.303 153.713 18.086 153.713 21.904C153.713 25.975 150.838 28.482 147.135 28.482Z" fill="black"/>
<path d="M170.685 30H172.801L165.441 13.624H164.291L156.954 30H159.07L160.818 26.09H168.914L170.685 30ZM164.866 16.66L166.361 20.156L168.086 24.296H161.669L163.371 20.156L164.866 16.66Z" fill="black"/>
<path d="M188.671 30L184.623 24.365C186.946 23.606 188.165 21.858 188.165 19.259C188.165 15.694 186.095 13.785 182.208 13.785H175.814V30H177.746V24.779H181.587C181.909 24.779 182.231 24.779 182.53 24.756L186.302 30H188.671ZM181.426 22.985H177.746V15.579H181.932C184.669 15.579 186.118 16.844 186.118 19.259C186.118 21.651 184.485 22.985 181.426 22.985Z" fill="black"/>
<path d="M192.119 30H198.007C203.113 30 205.827 26.734 205.827 21.72C205.827 16.361 202.86 13.785 197.892 13.785H192.119V30ZM194.051 28.206V15.579H197.892C201.894 15.579 203.826 17.787 203.826 21.72C203.826 25.883 201.526 28.206 198.007 28.206H194.051Z" fill="black"/>
<path d="M209.775 30H211.776V13.785H209.775V30Z" fill="black"/>
<path d="M228.447 13.785V26.251L217.499 13.578H216.51V30H218.442V17.534L229.39 30.184H230.379V13.785H228.447Z" fill="black"/>
<path d="M242.101 21.72V23.514H247.805V27.01C246.471 28.114 244.769 28.459 243.113 28.459C238.835 28.459 236.236 25.975 236.236 21.904C236.236 17.833 238.835 15.303 242.722 15.303C244.838 15.303 246.632 16.039 247.897 17.189L249.139 15.832C247.598 14.406 245.39 13.509 242.722 13.509C237.593 13.509 234.235 16.706 234.235 21.904C234.235 27.102 237.593 30.276 243.113 30.276C245.459 30.276 247.92 29.701 249.737 27.907V21.72H242.101Z" fill="black"/>
<defs>
<linearGradient id="paint0_linear_2268_4492" x1="73.5" y1="-0.499998" x2="2.28606e-06" y2="41" gradientUnits="userSpaceOnUse">
<stop stop-color="#FF985F"/>
<stop offset="0.473557" stop-color="#A597CE"/>
<stop offset="1" stop-color="#44C2FB"/>
</linearGradient>
</defs>
</svg>
