<svg width="25" height="24" viewBox="0 0 25 24" fill="none" xmlns="http://www.w3.org/2000/svg">
<path fill-rule="evenodd" clip-rule="evenodd" d="M4.95035 5.1561C4.5 6.02306 4.5 7.16204 4.5 9.44V12.56C4.5 14.838 4.5 15.9769 4.95035 16.8439C5.32985 17.5745 5.92553 18.1702 6.6561 18.5497C7.25055 18.8584 7.97288 18.9555 9.10258 18.986C9.28801 18.991 9.46533 19.0659 9.5965 19.1971L10.7527 20.3532C11.3467 20.9473 11.6437 21.2443 11.9862 21.3556C12.2874 21.4534 12.612 21.4534 12.9132 21.3556C13.2557 21.2443 13.5527 20.9473 14.1468 20.3532L15.3029 19.1971C15.433 19.067 15.609 18.9929 15.793 18.9886C16.983 18.9612 17.7313 18.8679 18.3439 18.5497C19.0745 18.1702 19.6702 17.5745 20.0497 16.8439C20.5 15.9769 20.5 14.838 20.5 12.56V9.44C20.5 7.16204 20.5 6.02306 20.0497 5.1561C19.6702 4.42553 19.0745 3.82985 18.3439 3.45035C17.4769 3 16.338 3 14.06 3H10.94C8.66204 3 7.52306 3 6.6561 3.45035C5.92553 3.82985 5.32985 4.42553 4.95035 5.1561Z" fill="#26A0F8"/>
<path d="M4.95035 5.1561L4.28479 4.81037H4.28479L4.95035 5.1561ZM4.95035 16.8439L4.28479 17.1896H4.28479L4.95035 16.8439ZM6.6561 18.5497L6.31037 19.2152H6.31037L6.6561 18.5497ZM10.7527 20.3532L10.2223 20.8836H10.2223L10.7527 20.3532ZM11.9862 21.3556L12.2179 20.6423H12.2179L11.9862 21.3556ZM12.9132 21.3556L13.145 22.0688L12.9132 21.3556ZM14.1468 20.3532L14.6771 20.8836H14.6771L14.1468 20.3532ZM18.3439 18.5497L18.6896 19.2152L18.3439 18.5497ZM20.0497 16.8439L20.7152 17.1896L20.0497 16.8439ZM20.0497 5.1561L20.7152 4.81037V4.81037L20.0497 5.1561ZM18.3439 3.45035L18.6896 2.78479V2.78479L18.3439 3.45035ZM6.6561 3.45035L6.31037 2.78479V2.78479L6.6561 3.45035ZM15.793 18.9886L15.7757 18.2388L15.793 18.9886ZM9.10258 18.986L9.12282 18.2363L9.10258 18.986ZM5.25 9.44C5.25 8.28843 5.2506 7.47061 5.30372 6.83099C5.35609 6.20035 5.45561 5.81041 5.61591 5.50183L4.28479 4.81037C3.99473 5.36874 3.86908 5.98178 3.80887 6.70685C3.7494 7.42295 3.75 8.31361 3.75 9.44H5.25ZM5.25 12.56V9.44H3.75V12.56H5.25ZM5.61591 16.4982C5.45561 16.1896 5.35609 15.7997 5.30372 15.169C5.2506 14.5294 5.25 13.7116 5.25 12.56H3.75C3.75 13.6864 3.7494 14.577 3.80887 15.2931C3.86908 16.0182 3.99473 16.6313 4.28479 17.1896L5.61591 16.4982ZM7.00183 17.8841C6.40824 17.5757 5.92425 17.0918 5.61591 16.4982L4.28479 17.1896C4.73545 18.0572 5.44282 18.7646 6.31037 19.2152L7.00183 17.8841ZM9.12282 18.2363C8.00162 18.206 7.43181 18.1074 7.00183 17.8841L6.31037 19.2152C7.06928 19.6094 7.94414 19.705 9.08233 19.7357L9.12282 18.2363ZM11.283 19.8229L10.1268 18.6668L9.06617 19.7274L10.2223 20.8836L11.283 19.8229ZM12.2179 20.6423C12.1784 20.6294 12.105 20.596 11.9491 20.4637C11.7866 20.3257 11.5887 20.1287 11.283 19.8229L10.2223 20.8836C10.5106 21.1718 10.7583 21.4203 10.9784 21.6072C11.2052 21.7997 11.4515 21.9704 11.7544 22.0688L12.2179 20.6423ZM12.6815 20.6423C12.5308 20.6912 12.3686 20.6912 12.2179 20.6423L11.7544 22.0688C12.2063 22.2157 12.6931 22.2157 13.145 22.0688L12.6815 20.6423ZM13.6164 19.8229C13.3107 20.1287 13.1128 20.3257 12.9503 20.4637C12.7944 20.596 12.7211 20.6294 12.6815 20.6423L13.145 22.0688C13.4479 21.9704 13.6943 21.7997 13.9211 21.6072C14.1412 21.4203 14.3888 21.1718 14.6771 20.8836L13.6164 19.8229ZM14.7726 18.6668L13.6164 19.8229L14.6771 20.8836L15.8332 19.7274L14.7726 18.6668ZM17.9982 17.8841C17.5538 18.1149 16.9629 18.2115 15.7757 18.2388L15.8103 19.7384C17.003 19.711 17.9089 19.6208 18.6896 19.2152L17.9982 17.8841ZM19.3841 16.4982C19.0757 17.0918 18.5918 17.5757 17.9982 17.8841L18.6896 19.2152C19.5572 18.7646 20.2646 18.0572 20.7152 17.1896L19.3841 16.4982ZM19.75 12.56C19.75 13.7116 19.7494 14.5294 19.6963 15.169C19.6439 15.7996 19.5444 16.1896 19.3841 16.4982L20.7152 17.1896C21.0053 16.6313 21.1309 16.0182 21.1911 15.2931C21.2506 14.577 21.25 13.6864 21.25 12.56H19.75ZM19.75 9.44V12.56H21.25V9.44H19.75ZM19.3841 5.50183C19.5444 5.81041 19.6439 6.20035 19.6963 6.83099C19.7494 7.47061 19.75 8.28843 19.75 9.44H21.25C21.25 8.31361 21.2506 7.42295 21.1911 6.70685C21.1309 5.98178 21.0053 5.36874 20.7152 4.81037L19.3841 5.50183ZM17.9982 4.11591C18.5918 4.42425 19.0757 4.90824 19.3841 5.50183L20.7152 4.81037C20.2646 3.94282 19.5572 3.23545 18.6896 2.78479L17.9982 4.11591ZM14.06 3.75C15.2116 3.75 16.0294 3.7506 16.669 3.80372C17.2996 3.85609 17.6896 3.95561 17.9982 4.11591L18.6896 2.78479C18.1313 2.49473 17.5182 2.36908 16.7931 2.30887C16.077 2.2494 15.1864 2.25 14.06 2.25V3.75ZM10.94 3.75H14.06V2.25H10.94V3.75ZM7.00183 4.11591C7.31041 3.95561 7.70035 3.85609 8.33099 3.80372C8.97061 3.7506 9.78843 3.75 10.94 3.75V2.25C9.81361 2.25 8.92295 2.2494 8.20685 2.30887C7.48178 2.36908 6.86874 2.49473 6.31037 2.78479L7.00183 4.11591ZM5.61591 5.50183C5.92425 4.90824 6.40824 4.42425 7.00183 4.11591L6.31037 2.78479C5.44282 3.23544 4.73544 3.94282 4.28479 4.81037L5.61591 5.50183ZM15.8332 19.7274C15.8247 19.736 15.816 19.7383 15.8103 19.7384L15.7757 18.2388C15.4021 18.2474 15.0414 18.398 14.7726 18.6668L15.8332 19.7274ZM9.08233 19.7357C9.07967 19.7357 9.07332 19.7346 9.06617 19.7274L10.1268 18.6668C9.85734 18.3973 9.49636 18.2464 9.12282 18.2363L9.08233 19.7357Z" fill="#26A0F8"/>
<path d="M9.50005 11L11.5006 13L15.5 9" stroke="white" stroke-width="1.5" stroke-linecap="round" stroke-linejoin="round"/>
</svg>
